<svg id="Layer_1" data-name="Layer 1" xmlns="http://www.w3.org/2000/svg" viewBox="0 0 700 700"><defs><style>.cls-1{fill:#94c9a9;}.cls-1,.cls-2,.cls-3{stroke:#0f0e0f;stroke-miterlimit:10;stroke-width:20px;}.cls-2{fill:#d5573b;}.cls-3{fill:#ead7d1;}</style></defs><path class="cls-1" d="M426.5,470V257.47a9,9,0,0,0-9-9H205a9,9,0,0,0-6.34,15.31L411.19,476.36A9,9,0,0,0,426.5,470Z"/><circle class="cls-2" cx="276.5" cy="403.5" r="168"/><path class="cls-1" d="M320.5,394V181.47a9,9,0,0,0-9-9H99a9,9,0,0,0-6.34,15.31L305.19,400.36A9,9,0,0,0,320.5,394Z"/><path class="cls-1" d="M513,586.52V374a9,9,0,0,0-9-9H291.48a9,9,0,0,0-6.34,15.31L497.69,592.86A9,9,0,0,0,513,586.52Z"/><path class="cls-3" d="M60.5,107.49V616.05A21.45,21.45,0,0,0,82,637.5H590.51c19.11,0,28.68-23.11,15.16-36.62L97.12,92.33C83.61,78.81,60.5,88.38,60.5,107.49Z"/></svg>